<svg xmlns="http://www.w3.org/2000/svg" xmlns:xlink="http://www.w3.org/1999/xlink" fill="none" version="1.1" width="300" height="300" viewBox="0 0 300 300"><defs><clipPath id="master_svg0_119_6446"><rect x="0" y="0" width="300" height="300" rx="0"/></clipPath></defs><g clip-path="url(#master_svg0_119_6446)"><rect x="0" y="0" width="300" height="300" rx="0" fill="#E9D5FD" fill-opacity="1"/><g><path d="M233.58,248L194.38,248L105.62,113.88L105.62,248L66.42,248L66.42,52.28L105.62,52.28L194.38,186.68L194.38,52.28L233.58,52.28L233.58,248Z" fill="#404040" fill-opacity="1"/></g><g><path d="M122.346,237.908Q122.346,238.748,122.23400000000001,239.42L110.894,239.42Q111.03399999999999,241.1,112.07,242.052Q113.106,243.004,114.618,243.004Q116.80199999999999,243.004,117.726,241.128L121.95400000000001,241.128Q121.28200000000001,243.368,119.37799999999999,244.81Q117.47399999999999,246.252,114.702,246.252Q112.46199999999999,246.252,110.684,245.258Q108.906,244.264,107.912,242.444Q106.918,240.624,106.918,238.244Q106.918,235.836,107.898,234.016Q108.87799999999999,232.196,110.642,231.216Q112.406,230.236,114.702,230.236Q116.91399999999999,230.236,118.66399999999999,231.188Q120.41399999999999,232.14,121.38,233.89Q122.346,235.64,122.346,237.908ZM118.286,236.788Q118.25800000000001,235.276,117.19399999999999,234.36599999999999Q116.13,233.456,114.59,233.456Q113.13399999999999,233.456,112.13999999999999,234.338Q111.14599999999999,235.22,110.922,236.788L118.286,236.788ZM145.586,230.488L141.05,246L136.822,246L133.994,235.164L131.166,246L126.91,246L122.346,230.488L126.322,230.488L129.066,242.304L132.034,230.488L136.178,230.488L139.09,242.276L141.834,230.488L145.586,230.488ZM150.178,242.78L157.094,242.78L157.094,246L145.726,246L145.726,242.836L152.502,233.708L145.754,233.708L145.754,230.488L157.01,230.488L157.01,233.652L150.178,242.78ZM173.838,230.488L164.234,253.336L160.062,253.336L163.422,245.608L157.206,230.488L161.602,230.488L165.606,241.324L169.666,230.488L173.838,230.488Z" fill="#404040" fill-opacity="1"/></g></g></svg>