<svg xmlns="http://www.w3.org/2000/svg" xmlns:xlink="http://www.w3.org/1999/xlink" fill="none" version="1.1" width="300" height="300" viewBox="0 0 300 300"><defs><clipPath id="master_svg0_119_7930"><rect x="0" y="0" width="300" height="300" rx="0"/></clipPath></defs><g clip-path="url(#master_svg0_119_7930)"><rect x="0" y="0" width="300" height="300" rx="0" fill="#E9D5FD" fill-opacity="1"/><g><path d="M61.8656,97.0231L239.915,97.0231L239.915,123.619L61.8656,123.619L61.8656,97.0231ZM61.8656,26.3931L95.1156,26.3931L95.1156,109.098L61.8656,109.098L61.8656,26.3931ZM33.4062,154.257L266.323,154.257L266.323,181.233L33.4062,181.233L33.4062,154.257ZM88.33,163.996L121.584,163.996L121.584,272.014L88.33,272.014L88.33,163.996ZM177.956,163.996L211.114,163.996L211.114,272.014L177.956,272.014L177.956,163.996Z" fill="#404040" fill-opacity="1"/></g></g></svg>